# Blender v2.90.1 OBJ File: 'Star6point.blend'
# www.blender.org
o Star5point
v 0.000000 -0.000000 -0.250833
v 0.000000 -0.000000 0.250052
v 0.475469 -0.154690 0.000052
v 0.475469 -0.154690 0.000052
v 0.587476 -0.809242 0.000052
v -0.000191 -0.500000 0.000052
v -0.000191 -0.500000 0.000052
v -0.588094 -0.808792 0.000052
v -0.475587 -0.154327 0.000052
v -0.475587 -0.154327 0.000052
v -0.950938 0.309380 0.000052
v -0.293738 0.404621 0.000052
v -0.293738 0.404621 0.000052
v 0.000382 1.000000 0.000052
v 0.294047 0.404396 0.000052
v 0.294047 0.404396 0.000052
v 0.951174 0.308654 0.000052
vn 0.3441 -0.3533 -0.8699
vn 0.4861 0.0832 -0.8699
vn -0.2297 -0.4364 -0.8699
vn 0.2293 -0.4366 -0.8699
vn -0.4860 0.0836 -0.8699
vn -0.3444 -0.3530 -0.8699
vn -0.0707 0.4881 -0.8699
vn -0.4421 0.2184 -0.8699
vn 0.4423 0.2181 -0.8699
vn 0.0711 0.4880 -0.8699
vn 0.0000 0.0000 1.0000
vn 0.9855 -0.1694 0.0000
vn 0.6983 0.7158 0.0000
vn 0.1434 -0.9897 0.0000
vn 0.8966 -0.4429 0.0000
vn 0.3432 -0.3523 0.8707
vn 0.4848 0.0830 0.8707
vn -0.2290 -0.4353 0.8707
vn 0.2287 -0.4354 0.8707
vn -0.4847 0.0833 0.8707
vn -0.3434 -0.3521 0.8707
vn -0.0705 0.4868 0.8707
vn -0.4410 0.2178 0.8707
vn 0.4411 0.2175 0.8707
vn 0.0709 0.4867 0.8707
s off
f 3//1 1//1 17//1
f 1//2 3//2 5//2
f 1//3 5//3 6//3
f 1//4 6//4 8//4
f 1//5 8//5 9//5
f 1//6 9//6 11//6
f 1//7 11//7 12//7
f 1//8 12//8 14//8
f 1//9 14//9 15//9
f 1//10 15//10 17//10
f 4//11 3//11 17//11
f 3//11 4//11 5//11
f 5//11 7//11 6//11
f 6//11 7//11 8//11
f 8//12 10//12 9//12
f 9//13 10//13 11//13
f 11//14 13//14 12//14
f 12//15 13//15 14//15
f 14//11 16//11 15//11
f 15//11 16//11 17//11
f 2//16 4//16 17//16
f 4//17 2//17 5//17
f 5//18 2//18 7//18
f 7//19 2//19 8//19
f 8//20 2//20 10//20
f 10//21 2//21 11//21
f 11//22 2//22 13//22
f 13//23 2//23 14//23
f 14//24 2//24 16//24
f 16//25 2//25 17//25
