# Blender v2.90.1 OBJ File: 'Star6point.blend'
# www.blender.org
o Star6point
v -0.000000 0.000000 -0.300000
v -0.000000 0.000000 0.300000
v 0.500000 0.000000 -0.000000
v 0.500000 0.000000 -0.000000
v 0.866025 -0.500000 0.000000
v 0.250000 -0.433013 0.000000
v 0.250000 -0.433013 0.000000
v 0.000000 -1.000000 0.000000
v -0.250000 -0.433013 0.000000
v -0.250000 -0.433013 0.000000
v -0.866025 -0.500000 0.000000
v -0.500000 -0.000000 0.000000
v -0.500000 -0.000000 0.000000
v -0.866026 0.500000 -0.000000
v -0.250000 0.433013 -0.000000
v -0.250000 0.433013 -0.000000
v 0.000000 1.000000 -0.000000
v 0.250000 0.433013 -0.000000
v 0.250000 0.433013 -0.000000
v 0.866025 0.500000 -0.000000
vn 0.4815 -0.3525 -0.8025
vn 0.4815 0.3525 -0.8025
vn -0.0645 -0.5932 -0.8025
vn 0.5460 -0.2407 -0.8025
vn -0.5460 -0.2407 -0.8025
vn 0.0645 -0.5932 -0.8025
vn -0.4815 0.3525 -0.8025
vn -0.4815 -0.3525 -0.8025
vn 0.0645 0.5932 -0.8025
vn -0.5460 0.2407 -0.8025
vn 0.5460 0.2407 -0.8025
vn -0.0645 0.5932 -0.8025
vn 0.0000 0.0000 1.0000
vn 0.4815 -0.3525 0.8025
vn 0.4815 0.3525 0.8025
vn -0.0645 -0.5932 0.8025
vn 0.5460 -0.2407 0.8025
vn -0.5460 -0.2407 0.8025
vn 0.0645 -0.5932 0.8025
vn -0.4815 0.3525 0.8025
vn -0.4815 -0.3525 0.8025
vn 0.0645 0.5932 0.8025
vn -0.5460 0.2407 0.8025
vn 0.5460 0.2407 0.8025
vn -0.0645 0.5932 0.8025
s off
f 3//1 1//1 20//1
f 1//2 3//2 5//2
f 1//3 5//3 6//3
f 1//4 6//4 8//4
f 1//5 8//5 9//5
f 1//6 9//6 11//6
f 1//7 11//7 12//7
f 1//8 12//8 14//8
f 1//9 14//9 15//9
f 1//10 15//10 17//10
f 1//11 17//11 18//11
f 1//12 18//12 20//12
f 4//13 3//13 20//13
f 3//13 4//13 5//13
f 5//13 7//13 6//13
f 6//13 7//13 8//13
f 8//13 10//13 9//13
f 9//13 10//13 11//13
f 11//13 13//13 12//13
f 12//13 13//13 14//13
f 14//13 16//13 15//13
f 15//13 16//13 17//13
f 17//13 19//13 18//13
f 18//13 19//13 20//13
f 2//14 4//14 20//14
f 4//15 2//15 5//15
f 5//16 2//16 7//16
f 7//17 2//17 8//17
f 8//18 2//18 10//18
f 10//19 2//19 11//19
f 11//20 2//20 13//20
f 13//21 2//21 14//21
f 14//22 2//22 16//22
f 16//23 2//23 17//23
f 17//24 2//24 19//24
f 19//25 2//25 20//25
