# Blender v2.90.1 OBJ File: 'Star_thin.blend'
# www.blender.org
o Star6point
v -0.000000 -0.000000 0.350000
v -0.000000 -0.000000 -0.350000
v 0.250000 -0.433013 0.050000
v 0.250000 -0.433013 -0.050000
v 0.866025 -0.500000 0.050000
v 0.866025 -0.500000 -0.050000
v 0.500000 -0.000000 0.050000
v 0.500000 -0.000000 -0.050000
v 0.866026 0.500000 0.050000
v 0.866026 0.500000 -0.050000
v 0.250000 0.433013 0.050000
v 0.250000 0.433013 -0.050000
v 0.000001 1.000000 0.050000
v 0.000001 1.000000 -0.050000
v -0.250000 0.433013 0.050000
v -0.250000 0.433013 -0.050000
v -0.866025 0.500000 0.050000
v -0.866025 0.500000 -0.050000
v -0.500000 0.000000 0.050000
v -0.500000 0.000000 -0.050000
v -0.866026 -0.500000 0.050000
v -0.866026 -0.500000 -0.050000
v -0.250000 -0.433013 0.050000
v -0.250000 -0.433013 -0.050000
v -0.000000 -1.000000 0.050000
v -0.000000 -1.000000 -0.050000
vn 0.5460 -0.2407 0.8025
vn -0.0645 -0.5932 0.8025
vn 0.4815 0.3525 0.8025
vn 0.4815 -0.3525 0.8025
vn -0.0645 0.5932 0.8025
vn 0.5460 0.2407 0.8025
vn -0.5460 0.2407 0.8025
vn 0.0645 0.5932 0.8025
vn -0.4815 -0.3525 0.8025
vn -0.4815 0.3525 0.8025
vn 0.0645 -0.5932 0.8025
vn -0.5460 -0.2407 0.8025
vn 0.9150 -0.4034 0.0000
vn -0.1081 -0.9941 0.0000
vn 0.8069 0.5907 0.0000
vn 0.8069 -0.5907 -0.0000
vn -0.1081 0.9941 0.0000
vn 0.9150 0.4034 0.0000
vn -0.9150 0.4034 0.0000
vn 0.1081 0.9941 0.0000
vn -0.8069 -0.5907 0.0000
vn -0.8069 0.5907 0.0000
vn 0.1081 -0.9941 0.0000
vn -0.9150 -0.4034 0.0000
vn 0.5460 -0.2407 -0.8025
vn -0.0645 -0.5932 -0.8025
vn 0.4815 0.3525 -0.8025
vn 0.4815 -0.3525 -0.8025
vn -0.0645 0.5932 -0.8025
vn 0.5460 0.2407 -0.8025
vn -0.5460 0.2407 -0.8025
vn 0.0645 0.5932 -0.8025
vn -0.4815 -0.3525 -0.8025
vn -0.4815 0.3525 -0.8025
vn 0.0645 -0.5932 -0.8025
vn -0.5460 -0.2407 -0.8025
s off
f 3//1 1//1 25//1
f 1//2 3//2 5//2
f 1//3 5//3 7//3
f 1//4 7//4 9//4
f 1//5 9//5 11//5
f 1//6 11//6 13//6
f 1//7 13//7 15//7
f 1//8 15//8 17//8
f 1//9 17//9 19//9
f 1//10 19//10 21//10
f 1//11 21//11 23//11
f 1//12 23//12 25//12
f 3//13 26//13 4//13
f 4//14 5//14 3//14
f 6//15 7//15 5//15
f 8//16 9//16 7//16
f 10//17 11//17 9//17
f 12//18 13//18 11//18
f 14//19 15//19 13//19
f 16//20 17//20 15//20
f 18//21 19//21 17//21
f 20//22 21//22 19//22
f 22//23 23//23 21//23
f 24//24 25//24 23//24
f 2//25 4//25 26//25
f 4//26 2//26 6//26
f 6//27 2//27 8//27
f 8//28 2//28 10//28
f 10//29 2//29 12//29
f 12//30 2//30 14//30
f 14//31 2//31 16//31
f 16//32 2//32 18//32
f 18//33 2//33 20//33
f 20//34 2//34 22//34
f 22//35 2//35 24//35
f 24//36 2//36 26//36
f 3//13 25//13 26//13
f 4//14 6//14 5//14
f 6//15 8//15 7//15
f 8//16 10//16 9//16
f 10//17 12//17 11//17
f 12//18 14//18 13//18
f 14//19 16//19 15//19
f 16//20 18//20 17//20
f 18//21 20//21 19//21
f 20//22 22//22 21//22
f 22//23 24//23 23//23
f 24//24 26//24 25//24
