# Blender v2.90.1 OBJ File: 'Star6point.blend'
# www.blender.org
o Star5point
v 0.000000 0.250833 -0.000000
v 0.000000 -0.250052 -0.000000
v 0.500000 -0.000052 -0.000000
v 0.500000 -0.000052 -0.000000
v 0.809017 -0.000052 -0.587785
v 0.154509 -0.000052 -0.475528
v 0.154509 -0.000052 -0.475528
v -0.309017 -0.000052 -0.951057
v -0.404509 -0.000052 -0.293893
v -0.404509 -0.000052 -0.293893
v -1.000000 -0.000052 -0.000000
v -0.404509 -0.000052 0.293892
v -0.404509 -0.000052 0.293892
v -0.309017 -0.000052 0.951057
v 0.154509 -0.000052 0.475528
v 0.154509 -0.000052 0.475528
v 0.809017 -0.000052 0.587786
vn 0.4365 0.8699 -0.2295
vn 0.4365 0.8699 0.2295
vn -0.0834 0.8699 -0.4861
vn 0.3531 0.8699 -0.3442
vn -0.4880 0.8699 -0.0709
vn -0.2183 0.8699 -0.4422
vn -0.2183 0.8699 0.4422
vn -0.4880 0.8699 0.0709
vn 0.3531 0.8699 0.3442
vn -0.0834 0.8699 0.4861
vn 0.0000 0.0000 1.0000
vn 0.9896 0.0000 0.1438
vn 0.4426 0.0000 0.8967
vn 0.4426 0.0000 -0.8967
vn 0.9896 0.0000 -0.1438
vn 0.4353 -0.8707 -0.2289
vn 0.4353 -0.8707 0.2289
vn -0.0831 -0.8707 -0.4848
vn 0.3522 -0.8707 -0.3433
vn -0.4867 -0.8707 -0.0707
vn -0.2177 -0.8707 -0.4411
vn -0.2177 -0.8707 0.4411
vn -0.4867 -0.8707 0.0707
vn 0.3522 -0.8707 0.3433
vn -0.0831 -0.8707 0.4848
s off
f 3//1 1//1 17//1
f 1//2 3//2 5//2
f 1//3 5//3 6//3
f 1//4 6//4 8//4
f 1//5 8//5 9//5
f 1//6 9//6 11//6
f 1//7 11//7 12//7
f 1//8 12//8 14//8
f 1//9 14//9 15//9
f 1//10 15//10 17//10
f 4//11 3//11 17//11
f 3//11 4//11 5//11
f 5//11 7//11 6//11
f 6//11 7//11 8//11
f 8//12 10//12 9//12
f 9//13 10//13 11//13
f 11//14 13//14 12//14
f 12//15 13//15 14//15
f 14//11 16//11 15//11
f 15//11 16//11 17//11
f 2//16 4//16 17//16
f 4//17 2//17 5//17
f 5//18 2//18 7//18
f 7//19 2//19 8//19
f 8//20 2//20 10//20
f 10//21 2//21 11//21
f 11//22 2//22 13//22
f 13//23 2//23 14//23
f 14//24 2//24 16//24
f 16//25 2//25 17//25
