# Blender v2.90.1 OBJ File: ''
# www.blender.org
o TwistedTorus
v 1.510000 0.000000 0.000000
v 1.257500 0.437343 0.000000
v 0.752500 0.437343 0.000000
v 0.500000 0.000000 0.000000
v 0.752500 -0.437343 0.000000
v 1.257500 -0.437343 0.000000
v 1.402058 0.243286 -0.359987
v 0.983669 0.504889 -0.252563
v 0.555038 0.261604 -0.142510
v 0.544794 -0.243286 -0.139879
v 0.963182 -0.504889 -0.247303
v 1.391814 -0.261604 -0.357357
v 1.117810 0.426386 -0.614521
v 0.675663 0.447533 -0.371449
v 0.438541 0.021147 -0.241090
v 0.643566 -0.426386 -0.353803
v 1.085713 -0.447533 -0.596876
v 1.322835 -0.021147 -0.727234
v 0.755728 0.504003 -0.709676
v 0.425991 0.279463 -0.400032
v 0.402876 -0.224541 -0.378325
v 0.709498 -0.504003 -0.666263
v 1.039236 -0.279463 -0.975907
v 1.062351 0.224541 -0.997614
v 0.423293 0.456938 -0.667003
v 0.268862 0.042257 -0.423659
v 0.384075 -0.414680 -0.605205
v 0.653718 -0.456938 -1.030096
v 0.808149 -0.042257 -1.273440
v 0.692937 0.414680 -1.091894
v 0.184312 0.296832 -0.567254
v 0.168000 -0.205402 -0.517051
v 0.294250 -0.502234 -0.905608
v 0.436812 -0.296832 -1.344369
v 0.453124 0.205402 -1.394572
v 0.326874 0.502234 -1.006015
v 0.031645 0.063293 -0.502987
v 0.043933 -0.402248 -0.698297
v 0.075392 -0.465541 -1.198326
v 0.094564 -0.063293 -1.503046
v 0.082276 0.402248 -1.307737
v 0.050817 0.465541 -0.807707
v -0.100336 -0.185903 -0.525978
v -0.174495 -0.499583 -0.914733
v -0.262477 -0.313680 -1.375954
v -0.276301 0.185903 -1.448419
v -0.202142 0.499583 -1.059664
v -0.114159 0.313680 -0.598443
v -0.290850 -0.389109 -0.618088
v -0.502858 -0.473327 -1.068627
v -0.639916 -0.084218 -1.359890
v -0.564966 0.389109 -1.200614
v -0.352959 0.473327 -0.750075
v -0.215901 0.084218 -0.458812
v -0.580293 -0.496055 -0.701454
v -0.884287 -0.329977 -1.068919
v -0.944605 0.166078 -1.141831
v -0.700929 0.496055 -0.847277
v -0.396935 0.329977 -0.479812
v -0.336617 -0.166078 -0.406900
v -0.939312 -0.480283 -0.682450
v -1.212688 -0.104995 -0.881069
v -1.086438 0.375288 -0.789343
v -0.686812 0.480283 -0.498998
v -0.413436 0.104995 -0.300379
v -0.539686 -0.375288 -0.392105
v -1.276703 -0.345696 -0.505483
v -1.383922 0.145961 -0.547934
v -1.041644 0.491657 -0.412416
v -0.592147 0.345696 -0.234448
v -0.484928 -0.145961 -0.191997
v -0.827206 -0.491657 -0.327514
v -1.482353 -0.125588 -0.187265
v -1.347619 0.360809 -0.170244
v -0.862341 0.486397 -0.108939
v -0.511797 0.125588 -0.064655
v -0.646531 -0.360809 -0.081676
v -1.131809 -0.486397 -0.142981
v -1.482353 0.125588 0.187264
v -1.131809 0.486397 0.142980
v -0.646531 0.360809 0.081676
v -0.511798 -0.125588 0.064655
v -0.862341 -0.486397 0.108939
v -1.347619 -0.360809 0.170243
v -1.276703 0.345696 0.505482
v -0.827206 0.491657 0.327514
v -0.484928 0.145961 0.191996
v -0.592147 -0.345696 0.234447
v -1.041645 -0.491657 0.412416
v -1.383922 -0.145961 0.547933
v -0.939312 0.480283 0.682450
v -0.539686 0.375288 0.392105
v -0.413436 -0.104995 0.300379
v -0.686812 -0.480283 0.498998
v -1.086438 -0.375288 0.789343
v -1.212688 0.104995 0.881069
v -0.580293 0.496055 0.701454
v -0.336617 0.166078 0.406900
v -0.396935 -0.329977 0.479812
v -0.700929 -0.496055 0.847277
v -0.944605 -0.166078 1.141831
v -0.884287 0.329977 1.068919
v -0.290850 0.389109 0.618088
v -0.215901 -0.084218 0.458812
v -0.352959 -0.473327 0.750075
v -0.564966 -0.389109 1.200614
v -0.639916 0.084218 1.359890
v -0.502858 0.473327 1.068627
v -0.100336 0.185903 0.525978
v -0.114159 -0.313680 0.598443
v -0.202142 -0.499583 1.059664
v -0.276301 -0.185903 1.448419
v -0.262477 0.313680 1.375954
v -0.174495 0.499583 0.914733
v 0.031645 -0.063293 0.502987
v 0.050817 -0.465541 0.807707
v 0.082276 -0.402248 1.307737
v 0.094564 0.063293 1.503046
v 0.075392 0.465541 1.198326
v 0.043933 0.402248 0.698297
v 0.184312 -0.296832 0.567254
v 0.326874 -0.502234 1.006015
v 0.453124 -0.205402 1.394572
v 0.436812 0.296832 1.344369
v 0.294250 0.502234 0.905608
v 0.168000 0.205402 0.517051
v 0.423293 -0.456938 0.667004
v 0.692936 -0.414680 1.091894
v 0.808149 0.042257 1.273440
v 0.653718 0.456938 1.030096
v 0.384075 0.414680 0.605206
v 0.268862 -0.042257 0.423659
v 0.755728 -0.504003 0.709677
v 1.062350 -0.224541 0.997615
v 1.039235 0.279463 0.975908
v 0.709498 0.504003 0.666264
v 0.402875 0.224541 0.378326
v 0.425990 -0.279463 0.400032
v 1.117810 -0.426386 0.614522
v 1.322834 0.021147 0.727235
v 1.085712 0.447533 0.596876
v 0.643566 0.426386 0.353804
v 0.438541 -0.021147 0.241090
v 0.675663 -0.447533 0.371449
v 1.402058 -0.243286 0.359988
v 1.391814 0.261604 0.357358
v 0.963182 0.504889 0.247303
v 0.544794 0.243286 0.139880
v 0.555038 -0.261604 0.142510
v 0.983669 -0.504889 0.252564
vn 0.9537 -0.0209 -0.3001
vn 0.8634 0.4985 0.0780
vn 0.0000 0.9660 0.2584
vn -0.7480 0.4319 0.5039
vn -0.7451 -0.4302 0.5096
vn 0.0000 -0.9647 0.2635
vn 0.7380 0.4620 -0.4918
vn 0.5327 0.8462 0.0139
vn -0.3363 0.8099 0.4806
vn -0.6666 0.0174 0.7452
vn -0.3608 -0.7843 0.5047
vn 0.4998 -0.8655 0.0332
vn 0.3024 0.8245 -0.4782
vn 0.1553 0.9677 0.1983
vn -0.4034 0.4652 0.7879
vn -0.4160 -0.3967 0.8183
vn 0.0965 -0.9610 0.2591
vn 0.7776 -0.5340 -0.3321
vn -0.1624 0.9664 -0.1992
vn -0.0467 0.8317 0.5533
vn -0.2251 0.0522 0.9729
vn -0.0877 -0.7599 0.6441
vn 0.4321 -0.8836 -0.1805
vn 0.7634 -0.0627 -0.6429
vn -0.4664 0.8496 0.2462
vn 0.0280 0.4981 0.8666
vn 0.0286 -0.3629 0.9314
vn 0.1965 -0.9556 0.2197
vn 0.5126 -0.5685 -0.6434
vn 0.5433 0.4247 -0.7241
vn -0.5287 0.5284 0.6643
vn 0.2704 0.0871 0.9588
vn 0.2343 -0.7343 0.6371
vn 0.2876 -0.8999 -0.3278
vn 0.3588 -0.1044 -0.9276
vn 0.3055 0.8020 -0.5134
vn -0.3889 0.1217 0.9132
vn 0.4790 -0.3288 0.8139
vn 0.2858 -0.9483 0.1380
vn 0.1425 -0.6020 -0.7857
vn 0.1252 0.3866 -0.9137
vn 0.2368 0.9656 -0.1073
vn -0.1416 -0.2955 0.9448
vn 0.5273 -0.7076 0.4704
vn 0.1094 -0.9145 -0.3895
vn -0.1304 -0.1459 -0.9807
vn 0.0075 0.7775 -0.6288
vn 0.4088 0.8708 0.2730
vn 0.0420 -0.6824 0.7298
vn 0.3430 -0.9392 0.0142
vn -0.2378 -0.6344 -0.7355
vn -0.3397 0.3478 -0.8739
vn 0.1301 0.9618 -0.2410
vn 0.7154 0.5624 0.4147
vn -0.0215 -0.9304 0.3660
vn -0.0603 -0.9274 -0.3693
vn -0.5812 -0.1871 -0.7920
vn -0.3220 0.7516 -0.5757
vn 0.4591 0.8881 0.0216
vn 0.9461 0.1567 0.2835
vn -0.3349 -0.9392 0.0757
vn -0.5372 -0.6655 -0.5181
vn -0.7314 0.3084 -0.6083
vn -0.0402 0.9561 -0.2904
vn 0.8047 0.5936 0.0140
vn 0.9650 -0.2602 0.0341
vn -0.7182 -0.6957 0.0171
vn -0.8820 -0.2280 -0.4123
vn -0.5909 0.7243 -0.3552
vn 0.3750 0.9039 -0.2059
vn 0.9597 0.1915 -0.2059
vn 0.7340 -0.6512 -0.1929
vn -0.9463 -0.2684 0.1800
vn -0.9463 0.2684 -0.1800
vn -0.2163 0.9485 -0.2313
vn 0.6889 0.6240 -0.3688
vn 0.8700 -0.2257 -0.4383
vn 0.2741 -0.9159 -0.2932
vn -0.8820 0.2280 0.4123
vn -0.7182 0.6957 -0.0171
vn 0.1938 0.9179 -0.3461
vn 0.7362 0.2263 -0.6378
vn 0.5722 -0.6216 -0.5350
vn -0.2673 -0.9477 -0.1743
vn -0.5372 0.6655 0.5181
vn -0.3349 0.9392 -0.0757
vn 0.4078 0.6537 -0.6375
vn 0.5558 -0.1911 -0.8090
vn 0.1295 -0.9017 -0.4124
vn -0.6746 -0.7241 0.1434
vn -0.0603 0.9274 0.3693
vn -0.0215 0.9304 -0.3660
vn 0.3348 0.2609 -0.9054
vn 0.2559 -0.5912 -0.7648
vn -0.2909 -0.9552 -0.0550
vn -0.8049 -0.3084 0.5069
vn 0.3430 0.9392 -0.0142
vn 0.0420 0.6824 -0.7298
vn 0.0983 -0.1564 -0.9828
vn -0.0702 -0.8859 -0.4585
vn -0.5069 -0.7514 0.4225
vn -0.6687 0.1871 0.7196
vn 0.5273 0.7076 -0.4704
vn -0.1416 0.2955 -0.9448
vn -0.1436 -0.5601 -0.8159
vn -0.2726 -0.9608 0.0513
vn -0.4576 -0.3478 0.8183
vn -0.4135 0.6345 0.6530
vn 0.4790 0.3288 -0.8139
vn -0.3889 -0.1217 -0.9132
vn -0.2862 -0.8685 -0.4047
vn -0.2409 -0.7773 0.5812
vn -0.2394 0.1459 0.9599
vn -0.2416 0.9151 0.3228
vn 0.2704 -0.0871 -0.9588
vn -0.5287 -0.5284 -0.6643
vn -0.2261 -0.9645 0.1363
vn -0.0107 -0.3866 0.9222
vn -0.0412 0.6021 0.7974
vn -0.2953 0.9500 -0.1017
vn 0.0280 -0.4981 -0.8666
vn -0.4664 -0.8496 -0.2462
vn 0.0520 -0.8017 0.5955
vn 0.2552 0.1044 0.9612
vn -0.0366 0.9004 0.4334
vn -0.5580 0.7369 -0.3816
vn -0.0467 -0.8317 -0.5533
vn -0.1624 -0.9664 0.1992
vn 0.4229 -0.4247 0.8005
vn 0.3653 0.5686 0.7371
vn -0.2780 0.9572 0.0812
vn -0.8521 0.3642 -0.3758
vn 0.1553 -0.9677 -0.1983
vn 0.3024 -0.8245 0.4782
vn 0.6897 0.0627 0.7214
vn 0.2097 0.8840 0.4177
vn -0.6448 0.7625 -0.0533
vn -0.9853 -0.0522 -0.1626
vn 0.5327 -0.8462 -0.0139
vn 0.7380 -0.4620 0.4918
vn 0.6979 0.5340 0.4773
vn -0.1646 0.9625 0.2156
vn -0.9137 0.3982 0.0811
vn -0.8818 -0.4634 0.0883
vn 0.8634 -0.4985 -0.0780
vn 0.9537 0.0209 0.3001
vn 0.4230 0.8659 0.2669
vn -0.5591 0.7868 0.2614
vn -0.9430 -0.0174 0.3323
vn -0.5266 -0.8074 0.2660
vn 0.8633 -0.4984 0.0794
vn 0.4591 0.8458 -0.2716
vn -0.5266 0.8074 -0.2660
vn -0.9430 0.0174 -0.3323
vn -0.5591 -0.7868 -0.2614
vn 0.4230 -0.8659 -0.2669
vn 0.9803 -0.0209 -0.1964
vn -0.0867 0.9665 -0.2417
vn -0.8818 0.4634 -0.0883
vn -0.9137 -0.3982 -0.0811
vn -0.1646 -0.9625 -0.2156
vn 0.6979 -0.5340 -0.4773
vn 0.8102 0.4620 -0.3607
vn -0.5589 0.8292 0.0061
vn -0.9853 0.0522 0.1626
vn -0.6448 -0.7625 0.0533
vn 0.2097 -0.8840 -0.4177
vn 0.6897 -0.0627 -0.7214
vn 0.4945 0.8249 -0.2740
vn -0.7998 0.4961 0.3379
vn -0.8521 -0.3642 0.3758
vn -0.2780 -0.9572 -0.0812
vn 0.3653 -0.5686 -0.7370
vn 0.4229 0.4247 -0.8005
vn 0.2454 0.9676 0.0595
vn -0.7834 0.0870 0.6154
vn -0.5580 -0.7369 0.3816
vn -0.0366 -0.9004 -0.4334
vn 0.2552 -0.1044 -0.9612
vn 0.0520 0.8017 -0.5955
vn 0.2260 0.8520 0.4723
vn -0.5728 -0.3299 0.7504
vn -0.2953 -0.9500 0.1017
vn -0.0412 -0.6021 -0.7974
vn -0.0107 0.3866 -0.9222
vn -0.2261 0.9645 -0.1363
vn 0.4347 0.5306 0.7277
vn -0.3099 -0.7102 0.6321
vn -0.2416 -0.9151 -0.3228
vn -0.2394 -0.1459 -0.9599
vn -0.2409 0.7773 -0.5812
vn -0.2862 0.8685 0.4047
vn 0.6961 0.1219 0.7075
vn -0.2023 -0.9411 0.2711
vn -0.4135 -0.6345 -0.6530
vn -0.4576 0.3478 -0.8183
vn -0.2726 0.9608 -0.0513
vn -0.1436 0.5601 0.8159
vn 0.8210 -0.2946 0.4890
vn -0.3487 -0.9280 -0.1310
vn -0.6687 -0.1871 -0.7196
vn -0.5069 0.7514 -0.4225
vn -0.0702 0.8859 0.4585
vn 0.0983 0.1564 0.9828
vn 0.7129 -0.6799 0.1718
vn -0.6577 -0.6657 -0.3525
vn -0.8049 0.3084 -0.5069
vn -0.2909 0.9552 0.0550
vn 0.2559 0.5912 0.7648
vn 0.3348 -0.2609 0.9054
vn 0.3446 -0.9284 -0.1386
vn -0.9251 -0.2280 -0.3038
vn -0.6746 0.7241 -0.1434
vn 0.1295 0.9017 0.4124
vn 0.5558 0.1911 0.8090
vn 0.4078 -0.6537 0.6375
vn -0.1907 -0.9384 -0.2880
vn -0.9614 0.2684 -0.0603
vn -0.2673 0.9477 0.1743
vn 0.5722 0.6216 0.5350
vn 0.7362 -0.2263 0.6378
vn 0.1938 -0.9179 0.3461
vn -0.6909 -0.6955 -0.1972
vn -0.6909 0.6955 0.1972
vn 0.2741 0.9159 0.2932
vn 0.8700 0.2257 0.4383
vn 0.6889 -0.6240 0.3688
vn -0.2163 -0.9485 0.2313
vn -0.9614 -0.2684 0.0603
vn -0.1907 0.9384 0.2880
vn 0.7340 0.6512 0.1929
vn 0.9597 -0.1915 0.2059
vn 0.3750 -0.9039 0.2059
vn -0.5909 -0.7243 0.3552
vn -0.9251 0.2280 0.3038
vn 0.3446 0.9284 0.1386
vn 0.9650 0.2602 -0.0341
vn 0.8047 -0.5936 -0.0140
vn -0.0402 -0.9561 0.2904
vn -0.7314 -0.3084 0.6083
vn -0.6577 0.6657 0.3525
vn 0.7129 0.6799 -0.1718
vn 0.9461 -0.1567 -0.2835
vn 0.4591 -0.8881 -0.0216
vn -0.3220 -0.7516 0.5757
vn -0.5812 0.1871 0.7920
vn -0.3487 0.9280 0.1310
vn 0.8210 0.2946 -0.4890
vn 0.7154 -0.5624 -0.4147
vn 0.1301 -0.9618 0.2410
vn -0.3397 -0.3478 0.8739
vn -0.2378 0.6344 0.7355
vn -0.2023 0.9411 -0.2711
vn 0.6961 -0.1219 -0.7075
vn 0.4088 -0.8708 -0.2730
vn 0.0075 -0.7775 0.6288
vn -0.1304 0.1459 0.9807
vn 0.1094 0.9145 0.3895
vn -0.3099 0.7102 -0.6321
vn 0.4347 -0.5306 -0.7277
vn 0.2368 -0.9656 0.1073
vn 0.1252 -0.3866 0.9137
vn 0.1425 0.6020 0.7857
vn 0.2858 0.9483 -0.1380
vn -0.5728 0.3299 -0.7504
vn 0.2260 -0.8520 -0.4723
vn 0.3055 -0.8020 0.5134
vn 0.3588 0.1044 0.9276
vn 0.2876 0.8999 0.3278
vn 0.2343 0.7343 -0.6371
vn -0.7834 -0.0870 -0.6154
vn 0.2454 -0.9676 -0.0595
vn 0.5433 -0.4247 0.7241
vn 0.5126 0.5685 0.6434
vn 0.1965 0.9556 -0.2197
vn 0.0286 0.3629 -0.9314
vn -0.7998 -0.4961 -0.3379
vn 0.4945 -0.8249 0.2740
vn 0.7634 0.0627 0.6429
vn 0.4321 0.8836 0.1805
vn -0.0877 0.7599 -0.6441
vn -0.2251 -0.0522 -0.9729
vn -0.5589 -0.8292 -0.0061
vn 0.8102 -0.4620 0.3607
vn 0.7776 0.5340 0.3321
vn 0.0965 0.9610 -0.2591
vn -0.4160 0.3967 -0.8183
vn -0.4034 -0.4652 -0.7879
vn -0.0867 -0.9665 0.2417
vn 0.9803 0.0209 0.1964
vn 0.4998 0.8655 -0.0332
vn -0.3608 0.7843 -0.5047
vn -0.6666 -0.0174 -0.7452
vn -0.3363 -0.8099 -0.4806
vn 0.4591 -0.8458 0.2716
vn 0.8633 0.4984 -0.0794
vn 0.0000 0.9647 -0.2635
vn -0.7451 0.4302 -0.5096
vn -0.7480 -0.4319 -0.5039
vn 0.0000 -0.9660 -0.2584
s off
f 1//1 12//1 7//1
f 7//2 2//2 1//2
f 8//3 3//3 2//3
f 9//4 4//4 3//4
f 10//5 5//5 4//5
f 11//6 6//6 5//6
f 7//7 18//7 13//7
f 13//8 8//8 7//8
f 14//9 9//9 8//9
f 15//10 10//10 9//10
f 16//11 11//11 10//11
f 17//12 12//12 11//12
f 13//13 24//13 19//13
f 19//14 14//14 13//14
f 20//15 15//15 14//15
f 21//16 16//16 15//16
f 22//17 17//17 16//17
f 23//18 18//18 17//18
f 19//19 30//19 25//19
f 25//20 20//20 19//20
f 26//21 21//21 20//21
f 27//22 22//22 21//22
f 28//23 23//23 22//23
f 29//24 24//24 23//24
f 25//25 36//25 31//25
f 31//26 26//26 25//26
f 32//27 27//27 26//27
f 33//28 28//28 27//28
f 34//29 29//29 28//29
f 35//30 30//30 29//30
f 31//31 42//31 37//31
f 37//32 32//32 31//32
f 38//33 33//33 32//33
f 39//34 34//34 33//34
f 40//35 35//35 34//35
f 41//36 36//36 35//36
f 37//37 48//37 43//37
f 43//38 38//38 37//38
f 44//39 39//39 38//39
f 45//40 40//40 39//40
f 46//41 41//41 40//41
f 47//42 42//42 41//42
f 43//43 54//43 49//43
f 49//44 44//44 43//44
f 50//45 45//45 44//45
f 51//46 46//46 45//46
f 52//47 47//47 46//47
f 53//48 48//48 47//48
f 49//49 60//49 55//49
f 55//50 50//50 49//50
f 56//51 51//51 50//51
f 57//52 52//52 51//52
f 58//53 53//53 52//53
f 59//54 54//54 53//54
f 55//55 66//55 61//55
f 61//56 56//56 55//56
f 62//57 57//57 56//57
f 63//58 58//58 57//58
f 64//59 59//59 58//59
f 65//60 60//60 59//60
f 61//61 72//61 67//61
f 67//62 62//62 61//62
f 68//63 63//63 62//63
f 69//64 64//64 63//64
f 70//65 65//65 64//65
f 71//66 66//66 65//66
f 67//67 78//67 73//67
f 73//68 68//68 67//68
f 74//69 69//69 68//69
f 75//70 70//70 69//70
f 76//71 71//71 70//71
f 77//72 72//72 71//72
f 73//73 84//73 79//73
f 79//74 74//74 73//74
f 80//75 75//75 74//75
f 81//76 76//76 75//76
f 82//77 77//77 76//77
f 83//78 78//78 77//78
f 79//79 90//79 85//79
f 85//80 80//80 79//80
f 86//81 81//81 80//81
f 87//82 82//82 81//82
f 88//83 83//83 82//83
f 89//84 84//84 83//84
f 85//85 96//85 91//85
f 91//86 86//86 85//86
f 92//87 87//87 86//87
f 93//88 88//88 87//88
f 94//89 89//89 88//89
f 95//90 90//90 89//90
f 91//91 102//91 97//91
f 97//92 92//92 91//92
f 98//93 93//93 92//93
f 99//94 94//94 93//94
f 100//95 95//95 94//95
f 101//96 96//96 95//96
f 97//97 108//97 103//97
f 103//98 98//98 97//98
f 104//99 99//99 98//99
f 105//100 100//100 99//100
f 106//101 101//101 100//101
f 107//102 102//102 101//102
f 103//103 114//103 109//103
f 109//104 104//104 103//104
f 110//105 105//105 104//105
f 111//106 106//106 105//106
f 112//107 107//107 106//107
f 113//108 108//108 107//108
f 109//109 120//109 115//109
f 115//110 110//110 109//110
f 116//111 111//111 110//111
f 117//112 112//112 111//112
f 118//113 113//113 112//113
f 119//114 114//114 113//114
f 115//115 126//115 121//115
f 121//116 116//116 115//116
f 122//117 117//117 116//117
f 123//118 118//118 117//118
f 124//119 119//119 118//119
f 125//120 120//120 119//120
f 121//121 132//121 127//121
f 127//122 122//122 121//122
f 128//123 123//123 122//123
f 129//124 124//124 123//124
f 130//125 125//125 124//125
f 131//126 126//126 125//126
f 127//127 138//127 133//127
f 133//128 128//128 127//128
f 134//129 129//129 128//129
f 135//130 130//130 129//130
f 136//131 131//131 130//131
f 137//132 132//132 131//132
f 133//133 144//133 139//133
f 139//134 134//134 133//134
f 140//135 135//135 134//135
f 141//136 136//136 135//136
f 142//137 137//137 136//137
f 143//138 138//138 137//138
f 139//139 150//139 145//139
f 145//140 140//140 139//140
f 146//141 141//141 140//141
f 147//142 142//142 141//142
f 148//143 143//143 142//143
f 149//144 144//144 143//144
f 145//145 6//145 1//145
f 1//146 146//146 145//146
f 2//147 147//147 146//147
f 3//148 148//148 147//148
f 4//149 149//149 148//149
f 5//150 150//150 149//150
f 1//151 6//151 12//151
f 7//152 8//152 2//152
f 8//153 9//153 3//153
f 9//154 10//154 4//154
f 10//155 11//155 5//155
f 11//156 12//156 6//156
f 7//157 12//157 18//157
f 13//158 14//158 8//158
f 14//159 15//159 9//159
f 15//160 16//160 10//160
f 16//161 17//161 11//161
f 17//162 18//162 12//162
f 13//163 18//163 24//163
f 19//164 20//164 14//164
f 20//165 21//165 15//165
f 21//166 22//166 16//166
f 22//167 23//167 17//167
f 23//168 24//168 18//168
f 19//169 24//169 30//169
f 25//170 26//170 20//170
f 26//171 27//171 21//171
f 27//172 28//172 22//172
f 28//173 29//173 23//173
f 29//174 30//174 24//174
f 25//175 30//175 36//175
f 31//176 32//176 26//176
f 32//177 33//177 27//177
f 33//178 34//178 28//178
f 34//179 35//179 29//179
f 35//180 36//180 30//180
f 31//181 36//181 42//181
f 37//182 38//182 32//182
f 38//183 39//183 33//183
f 39//184 40//184 34//184
f 40//185 41//185 35//185
f 41//186 42//186 36//186
f 37//187 42//187 48//187
f 43//188 44//188 38//188
f 44//189 45//189 39//189
f 45//190 46//190 40//190
f 46//191 47//191 41//191
f 47//192 48//192 42//192
f 43//193 48//193 54//193
f 49//194 50//194 44//194
f 50//195 51//195 45//195
f 51//196 52//196 46//196
f 52//197 53//197 47//197
f 53//198 54//198 48//198
f 49//199 54//199 60//199
f 55//200 56//200 50//200
f 56//201 57//201 51//201
f 57//202 58//202 52//202
f 58//203 59//203 53//203
f 59//204 60//204 54//204
f 55//205 60//205 66//205
f 61//206 62//206 56//206
f 62//207 63//207 57//207
f 63//208 64//208 58//208
f 64//209 65//209 59//209
f 65//210 66//210 60//210
f 61//211 66//211 72//211
f 67//212 68//212 62//212
f 68//213 69//213 63//213
f 69//214 70//214 64//214
f 70//215 71//215 65//215
f 71//216 72//216 66//216
f 67//217 72//217 78//217
f 73//218 74//218 68//218
f 74//219 75//219 69//219
f 75//220 76//220 70//220
f 76//221 77//221 71//221
f 77//222 78//222 72//222
f 73//223 78//223 84//223
f 79//224 80//224 74//224
f 80//225 81//225 75//225
f 81//226 82//226 76//226
f 82//227 83//227 77//227
f 83//228 84//228 78//228
f 79//229 84//229 90//229
f 85//230 86//230 80//230
f 86//231 87//231 81//231
f 87//232 88//232 82//232
f 88//233 89//233 83//233
f 89//234 90//234 84//234
f 85//235 90//235 96//235
f 91//236 92//236 86//236
f 92//237 93//237 87//237
f 93//238 94//238 88//238
f 94//239 95//239 89//239
f 95//240 96//240 90//240
f 91//241 96//241 102//241
f 97//242 98//242 92//242
f 98//243 99//243 93//243
f 99//244 100//244 94//244
f 100//245 101//245 95//245
f 101//246 102//246 96//246
f 97//247 102//247 108//247
f 103//248 104//248 98//248
f 104//249 105//249 99//249
f 105//250 106//250 100//250
f 106//251 107//251 101//251
f 107//252 108//252 102//252
f 103//253 108//253 114//253
f 109//254 110//254 104//254
f 110//255 111//255 105//255
f 111//256 112//256 106//256
f 112//257 113//257 107//257
f 113//258 114//258 108//258
f 109//259 114//259 120//259
f 115//260 116//260 110//260
f 116//261 117//261 111//261
f 117//262 118//262 112//262
f 118//263 119//263 113//263
f 119//264 120//264 114//264
f 115//265 120//265 126//265
f 121//266 122//266 116//266
f 122//267 123//267 117//267
f 123//268 124//268 118//268
f 124//269 125//269 119//269
f 125//270 126//270 120//270
f 121//271 126//271 132//271
f 127//272 128//272 122//272
f 128//273 129//273 123//273
f 129//274 130//274 124//274
f 130//275 131//275 125//275
f 131//276 132//276 126//276
f 127//277 132//277 138//277
f 133//278 134//278 128//278
f 134//279 135//279 129//279
f 135//280 136//280 130//280
f 136//281 137//281 131//281
f 137//282 138//282 132//282
f 133//283 138//283 144//283
f 139//284 140//284 134//284
f 140//285 141//285 135//285
f 141//286 142//286 136//286
f 142//287 143//287 137//287
f 143//288 144//288 138//288
f 139//289 144//289 150//289
f 145//290 146//290 140//290
f 146//291 147//291 141//291
f 147//292 148//292 142//292
f 148//293 149//293 143//293
f 149//294 150//294 144//294
f 145//295 150//295 6//295
f 1//296 2//296 146//296
f 2//297 3//297 147//297
f 3//298 4//298 148//298
f 4//299 5//299 149//299
f 5//300 6//300 150//300
